<svg width="20" height="20" viewBox="0 0 20 20" fill="none" xmlns="http://www.w3.org/2000/svg">
<g clip-path="url(#clip0_0_185)">
<path d="M10 11.6666V13.3333C7.23862 13.3333 5.00004 15.5719 5.00004 18.3333H3.33337C3.33337 14.6514 6.31814 11.6666 10 11.6666ZM10 10.8333C7.23754 10.8333 5.00004 8.59581 5.00004 5.83331C5.00004 3.07081 7.23754 0.833313 10 0.833313C12.7625 0.833313 15 3.07081 15 5.83331C15 8.59581 12.7625 10.8333 10 10.8333ZM10 9.16665C11.8417 9.16665 13.3334 7.67498 13.3334 5.83331C13.3334 3.99165 11.8417 2.49998 10 2.49998C8.15837 2.49998 6.66671 3.99165 6.66671 5.83331C6.66671 7.67498 8.15837 9.16665 10 9.16665ZM17.357 17.5592L15 20L12.643 17.5592C11.3413 16.2112 11.3413 14.0256 12.643 12.6776C13.9448 11.3296 16.0553 11.3296 17.357 12.6776C18.6588 14.0256 18.6588 16.2112 17.357 17.5592ZM16.1581 16.4015C16.8362 15.6993 16.8362 14.5376 16.1581 13.8354C15.5117 13.166 14.4884 13.166 13.842 13.8354C13.1639 14.5376 13.1639 15.6993 13.842 16.4015L15 17.6007L16.1581 16.4015Z" fill="white"/>
</g>
<defs>
<clipPath id="clip0_0_185">
<rect width="20" height="20" fill="white"/>
</clipPath>
</defs>
</svg>
