<svg width="16" height="16" viewBox="0 0 16 16" fill="none" xmlns="http://www.w3.org/2000/svg">
<path d="M4.25356 5.78697C4.39607 5.66669 4.55598 5.60376 4.73328 5.59821C4.91058 5.59265 5.06493 5.65557 5.19633 5.78697L8.01661 8.60726L10.8536 5.77031C10.9739 5.65002 11.131 5.59265 11.3249 5.59821C11.5189 5.60376 11.676 5.66669 11.7963 5.78697C11.9388 5.92949 12.0073 6.08661 12.0018 6.25836C11.9962 6.4301 11.9277 6.58167 11.7963 6.71307L8.47966 10.0297C8.41154 10.0979 8.33871 10.1477 8.26118 10.1794C8.18365 10.211 8.10212 10.2268 8.01661 10.2268C7.9311 10.2268 7.84958 10.211 7.77205 10.1794C7.69451 10.1477 7.62169 10.0979 7.55356 10.0297L4.25356 6.72974C4.12216 6.59834 4.05924 6.44399 4.0648 6.26669C4.07035 6.08939 4.13327 5.92949 4.25356 5.78697Z" fill="#7D23E0"/>
</svg>
