<svg width="24" height="24" viewBox="0 0 24 24" fill="none" xmlns="http://www.w3.org/2000/svg">
<path d="M5.72515 20.85C5.29155 20.85 4.92055 20.6958 4.61215 20.3874C4.30415 20.079 4.15015 19.7082 4.15015 19.275V9.85023C4.15015 9.60023 4.20435 9.36263 4.31275 9.13743C4.42075 8.91263 4.57475 8.72523 4.77475 8.57523L11.0501 3.87483C11.2001 3.77483 11.3543 3.69983 11.5127 3.64983C11.6707 3.59983 11.8331 3.57483 11.9999 3.57483C12.1667 3.57483 12.3291 3.59983 12.4871 3.64983C12.6455 3.69983 12.7997 3.77483 12.9497 3.87483L19.2251 8.57523C19.4251 8.72523 19.5791 8.91263 19.6871 9.13743C19.7955 9.36263 19.8497 9.60023 19.8497 9.85023V19.275C19.8497 19.7082 19.6955 20.079 19.3871 20.3874C19.0791 20.6958 18.7083 20.85 18.2747 20.85H14.0501V13.9248H9.97495V20.85H5.72515Z" fill="#A7A8A8"/>
</svg>
