<svg width="24" height="24" viewBox="0 0 24 24" fill="none" xmlns="http://www.w3.org/2000/svg">
<path d="M4.99999 3.72498H19C19.3192 3.72498 19.5886 3.83476 19.8081 4.05433C20.0277 4.27389 20.1375 4.54328 20.1375 4.86248C20.1375 5.18168 20.0277 5.45106 19.8081 5.67063C19.5886 5.89019 19.3192 5.99998 19 5.99998H4.99999C4.68079 5.99998 4.4114 5.89019 4.19184 5.67063C3.97227 5.45106 3.86249 5.18168 3.86249 4.86248C3.86249 4.54328 3.97227 4.27389 4.19184 4.05433C4.4114 3.83476 4.68079 3.72498 4.99999 3.72498ZM4.99999 20.275C4.68079 20.275 4.4114 20.1652 4.19184 19.9456C3.97227 19.7261 3.86249 19.4567 3.86249 19.1375V14.275H3.72934C3.3728 14.275 3.08458 14.1402 2.86466 13.8706C2.64473 13.6011 2.57208 13.29 2.64671 12.9375L3.68259 7.9016C3.74055 7.63638 3.87316 7.41981 4.08041 7.25188C4.28766 7.08394 4.52389 6.99998 4.78911 6.99998H19.2109C19.4761 6.99998 19.7123 7.08394 19.9196 7.25188C20.1268 7.41981 20.2594 7.63638 20.3174 7.9016L21.3533 12.9375C21.4279 13.29 21.3552 13.6011 21.1353 13.8706C20.9154 14.1402 20.6272 14.275 20.2706 14.275H20.1375V19.1375C20.1375 19.4567 20.0277 19.7261 19.8081 19.9456C19.5886 20.1652 19.3192 20.275 19 20.275C18.6808 20.275 18.4114 20.1652 18.1918 19.9456C17.9723 19.7261 17.8625 19.4567 17.8625 19.1375V14.275H14.1375V19.1375C14.1375 19.4567 14.0277 19.7261 13.8081 19.9456C13.5886 20.1652 13.3192 20.275 13 20.275H4.99999ZM6.13749 18H11.8625V14.275H6.13749V18Z" fill="#7D23E0"/>
</svg>
