<svg width="360" height="56" viewBox="0 0 360 56" fill="none" xmlns="http://www.w3.org/2000/svg">
<g filter="url(#filter0_d_0_376)">
<path d="M171 28.0001C183.372 28.0001 193.87 19.9764 197.573 8.84888C199.143 4.1327 203.03 0.00018835 208 0.00018835H351C353.665 0.00018835 360 0 360 0C360 0 360 6.6951 360 9.00015V47C360 49.305 360 56 360 56C360 56 353.666 56 351 56H9.00103C6.44581 56 0 56 0 56C0 56 0.00106883 49.4154 0.00106883 47V9.00015C0.00106883 6.58539 0.00295155 0.00110471 0.00295155 0.00110471C0.00295155 0.00110471 6.44526 0.00018835 9.00104 0.00018835H134.001C138.971 0.00018835 142.858 4.1327 144.427 8.84888C148.131 19.9764 158.629 28.0001 171 28.0001Z" fill="white"/>
</g>
<defs>
<filter id="filter0_d_0_376" x="-7.99997" y="-12" width="384" height="79.9999" filterUnits="userSpaceOnUse" color-interpolation-filters="sRGB">
<feFlood flood-opacity="0" result="BackgroundImageFix"/>
<feColorMatrix in="SourceAlpha" type="matrix" values="0 0 0 0 0 0 0 0 0 0 0 0 0 0 0 0 0 0 127 0" result="hardAlpha"/>
<feOffset dx="4"/>
<feGaussianBlur stdDeviation="6"/>
<feComposite in2="hardAlpha" operator="out"/>
<feColorMatrix type="matrix" values="0 0 0 0 0 0 0 0 0 0 0 0 0 0 0 0 0 0 0.08 0"/>
<feBlend mode="normal" in2="BackgroundImageFix" result="effect1_dropShadow_0_376"/>
<feBlend mode="normal" in="SourceGraphic" in2="effect1_dropShadow_0_376" result="shape"/>
</filter>
</defs>
</svg>
