<svg width="24" height="24" viewBox="0 0 24 24" fill="none" xmlns="http://www.w3.org/2000/svg">
<path d="M8.25 17.6346L12 14.7769L15.75 17.6346L14.3461 12.9923L18.0865 10.3346H13.5038L12 5.46157L10.4961 10.3346H5.91348L9.65383 12.9923L8.25 17.6346ZM12.0016 21.5C10.6877 21.5 9.45268 21.2506 8.29655 20.752C7.1404 20.2533 6.13472 19.5766 5.2795 18.7217C4.42427 17.8669 3.74721 16.8616 3.24833 15.706C2.74944 14.5504 2.5 13.3156 2.5 12.0017C2.5 10.6877 2.74933 9.45271 3.248 8.29657C3.74667 7.14042 4.42342 6.13474 5.27825 5.27952C6.1331 4.42429 7.13834 3.74723 8.29398 3.24835C9.44959 2.74947 10.6844 2.50002 11.9983 2.50002C13.3122 2.50002 14.5473 2.74936 15.7034 3.24802C16.8596 3.74669 17.8652 4.42344 18.7205 5.27827C19.5757 6.13312 20.2527 7.13837 20.7516 8.294C21.2505 9.44962 21.5 10.6844 21.5 11.9983C21.5 13.3123 21.2506 14.5473 20.752 15.7034C20.2533 16.8596 19.5765 17.8653 18.7217 18.7205C17.8669 19.5757 16.8616 20.2528 15.706 20.7516C14.5504 21.2505 13.3156 21.5 12.0016 21.5Z" fill="#029C42"/>
</svg>
