<svg width="20" height="20" viewBox="0 0 20 20" fill="none" xmlns="http://www.w3.org/2000/svg">
<path d="M5.37115 14.0266C5.12542 13.8899 4.93285 13.7054 4.79344 13.4731C4.65401 13.2409 4.58429 12.9804 4.58429 12.6917V9.07632L2.92085 8.15646C2.7841 8.07848 2.68368 7.9836 2.61958 7.87182C2.55549 7.76004 2.52344 7.63584 2.52344 7.49921C2.52344 7.3626 2.55549 7.23848 2.61958 7.12684C2.68368 7.01519 2.7841 6.92037 2.92085 6.84238L9.28344 3.37571C9.3964 3.31291 9.51271 3.26682 9.6324 3.23744C9.75209 3.20805 9.87494 3.19336 10.0009 3.19336C10.1269 3.19336 10.2498 3.20805 10.3695 3.23744C10.4892 3.26682 10.6056 3.31284 10.7188 3.3755L17.9047 7.28628C18.0329 7.35572 18.1312 7.44965 18.1996 7.56807C18.268 7.68647 18.3021 7.81423 18.3021 7.95134V12.868C18.3021 13.0451 18.2422 13.1935 18.1224 13.3133C18.0025 13.4331 17.854 13.493 17.6769 13.493C17.4997 13.493 17.3513 13.4331 17.2317 13.3133C17.112 13.1935 17.0522 13.0451 17.0522 12.868V8.19171L15.4176 9.07632V12.6917C15.4176 12.9804 15.3479 13.2409 15.2084 13.4731C15.069 13.7054 14.8765 13.8899 14.6307 14.0266L10.7205 16.1404C10.6062 16.2045 10.4892 16.2512 10.3695 16.2806C10.2498 16.31 10.1269 16.3247 10.0009 16.3247C9.87494 16.3247 9.75209 16.31 9.6324 16.2806C9.51271 16.2512 9.39572 16.2045 9.2814 16.1404L5.37115 14.0266ZM9.90477 10.5347C9.94217 10.556 9.97556 10.5667 10.0049 10.5667C10.0343 10.5667 10.0677 10.556 10.1051 10.5347L15.7013 7.49942L10.1051 4.47219C10.0677 4.45082 10.0343 4.44013 10.0049 4.44013C9.97556 4.44013 9.94217 4.45082 9.90477 4.47219L4.30062 7.49942L9.90477 10.5347ZM9.89677 15.0587C9.93416 15.08 9.96888 15.0907 10.0009 15.0907C10.033 15.0907 10.0677 15.08 10.1051 15.0587L14.0474 12.9289C14.0901 12.9022 14.1209 12.8714 14.1396 12.8367C14.1583 12.802 14.1676 12.7579 14.1676 12.7045V9.74298L10.7333 11.6292C10.619 11.6933 10.5004 11.74 10.3775 11.7694C10.2547 11.7988 10.1291 11.8135 10.0009 11.8135C9.87273 11.8135 9.7472 11.7988 9.62433 11.7694C9.50147 11.74 9.38288 11.6933 9.26856 11.6292L5.83427 9.74298V12.7045C5.83427 12.7472 5.84362 12.7886 5.86231 12.8287C5.88102 12.8688 5.91174 12.9022 5.95448 12.9289L9.89677 15.0587Z" fill="black"/>
</svg>
