<svg width="24" height="24" viewBox="0 0 24 24" fill="none" xmlns="http://www.w3.org/2000/svg">
<path d="M12 12.9462L16.0731 8.8731C16.2116 8.73464 16.3856 8.6638 16.5952 8.6606C16.8048 8.65739 16.982 8.72822 17.1269 8.8731C17.2718 9.01797 17.3442 9.1936 17.3442 9.4C17.3442 9.6064 17.2718 9.78204 17.1269 9.9269L12.6327 14.4211C12.5391 14.5147 12.4404 14.5808 12.3365 14.6192C12.2327 14.6577 12.1205 14.6769 12 14.6769C11.8795 14.6769 11.7673 14.6577 11.6635 14.6192C11.5596 14.5808 11.4609 14.5147 11.3673 14.4211L6.87311 9.9269C6.73465 9.78845 6.66381 9.61442 6.66061 9.4048C6.6574 9.1952 6.72823 9.01797 6.87311 8.8731C7.01798 8.72822 7.19361 8.65578 7.40001 8.65578C7.60641 8.65578 7.78205 8.72822 7.92691 8.8731L12 12.9462Z" fill="#A7A8A8"/>
</svg>
