<svg width="24" height="24" viewBox="0 0 24 24" fill="none" xmlns="http://www.w3.org/2000/svg">
<path d="M10.9065 19.4467L4.14022 12.6946C4.03804 12.5924 3.96321 12.4831 3.91574 12.3668C3.86828 12.2505 3.84454 12.1282 3.84454 12C3.84454 11.8717 3.86828 11.7494 3.91574 11.6331C3.96321 11.5168 4.03804 11.4076 4.14022 11.3054L10.9315 4.5141C11.1214 4.32425 11.3493 4.23168 11.6152 4.23638C11.8812 4.24109 12.1127 4.342 12.3098 4.5391C12.5069 4.74563 12.6054 4.98187 12.6054 5.2478C12.6054 5.51375 12.5069 5.74528 12.3098 5.94238L7.25654 11.0098H18.7804C19.063 11.0098 19.2987 11.1041 19.4875 11.2929C19.6763 11.4817 19.7706 11.7174 19.7706 12C19.7706 12.2826 19.6763 12.5183 19.4875 12.7071C19.2987 12.8958 19.063 12.9902 18.7804 12.9902H7.25654L12.3348 18.0826C12.5246 18.2724 12.6172 18.498 12.6125 18.7592C12.6078 19.0204 12.5069 19.2496 12.3098 19.4467C12.1033 19.6532 11.867 19.7565 11.6011 19.7565C11.3351 19.7565 11.1036 19.6532 10.9065 19.4467Z" fill="#0C0C0C"/>
</svg>
