<svg width="24" height="24" viewBox="0 0 24 24" fill="none" xmlns="http://www.w3.org/2000/svg">
<path d="M4.35543 19.6446C4.15833 19.4475 4.05978 19.2159 4.05978 18.95C4.05978 18.684 4.15833 18.4525 4.35543 18.2554L15.8706 6.74022H9.85001C9.57156 6.74022 9.33691 6.64437 9.14606 6.45269C8.95521 6.26099 8.85978 6.0253 8.85978 5.74562C8.85978 5.46592 8.95521 5.23168 9.14606 5.04292C9.33691 4.85415 9.57156 4.75977 9.85001 4.75977H18.25C18.5285 4.75977 18.7631 4.85519 18.954 5.04604C19.1448 5.23689 19.2402 5.47154 19.2402 5.74999V14.15C19.2402 14.4284 19.1444 14.6631 18.9527 14.8539C18.761 15.0448 18.5253 15.1402 18.2456 15.1402C17.9659 15.1402 17.7317 15.0448 17.5429 14.8539C17.3542 14.6631 17.2598 14.4284 17.2598 14.15V8.12937L5.75871 19.6446C5.56161 19.8417 5.32773 19.9402 5.05708 19.9402C4.78642 19.9402 4.55253 19.8417 4.35543 19.6446Z" fill="black"/>
</svg>
