<svg width="24" height="24" viewBox="0 0 24 24" fill="none" xmlns="http://www.w3.org/2000/svg">
<path d="M3.02693 17.2596C2.8718 17.1045 2.7984 16.9262 2.80673 16.725C2.81506 16.5237 2.88846 16.3538 3.02693 16.2154L8.07113 11.1058C8.41601 10.7545 8.84294 10.5789 9.3519 10.5789C9.86087 10.5789 10.291 10.7545 10.6423 11.1058L13.1404 13.6192C13.198 13.6769 13.2686 13.7058 13.3519 13.7058C13.4352 13.7058 13.509 13.6769 13.5731 13.6192L18.9654 8.28651H16.75C16.5371 8.28651 16.3589 8.21472 16.2154 8.07113C16.0718 7.92755 16 7.74935 16 7.53653C16 7.32372 16.0718 7.14552 16.2154 7.00193C16.3589 6.85835 16.5371 6.78656 16.75 6.78656H20.5961C20.8538 6.78656 21.0688 6.87278 21.2413 7.04521C21.4137 7.21764 21.5 7.4327 21.5 7.69039V11.5365C21.5 11.7494 21.4282 11.9276 21.2846 12.0711C21.141 12.2147 20.9628 12.2865 20.75 12.2865C20.5371 12.2865 20.3589 12.2163 20.2154 12.076C20.0718 11.9356 20 11.759 20 11.5462V9.34034L14.6327 14.7077C14.2878 15.0525 13.8609 15.225 13.3519 15.225C12.8429 15.225 12.416 15.0525 12.0711 14.7077L9.57308 12.2096C9.51538 12.1519 9.44165 12.123 9.3519 12.123C9.26215 12.123 9.18843 12.1519 9.13073 12.2096L4.08075 17.2596C3.93589 17.4045 3.76025 17.4769 3.55383 17.4769C3.34743 17.4769 3.1718 17.4045 3.02693 17.2596Z" fill="#757575"/>
</svg>
